<svg version="1.2" xmlns="http://www.w3.org/2000/svg" viewBox="0 0 800 800" width="800" height="800">
	<defs>
		<clipPath clipPathUnits="userSpaceOnUse" id="cp1">
			<path d="m400 733.33c184.09 0 333.33-149.24 333.33-333.33 0-15.42-23.11-17.97-31.09-4.77-37.94 62.79-106.86 104.77-185.57 104.77-119.67 0-216.67-97-216.67-216.67 0-78.72 41.98-147.63 104.77-185.57 13.2-7.98 10.65-31.09-4.77-31.09-184.09 0-333.33 149.23-333.33 333.33 0 184.09 149.24 333.33 333.33 333.33z"/>
		</clipPath>
	</defs>
	<style>
		.s0 { fill: #e4f6d9 } 
	</style>
	<g clip-path="url(#cp1)">
		<path class="s0" d="m400 733.33c184.09 0 333.33-149.24 333.33-333.33 0-15.42-23.11-17.97-31.09-4.77-37.94 62.79-106.86 104.77-185.57 104.77-119.67 0-216.67-97-216.67-216.67 0-78.72 41.98-147.63 104.77-185.57 13.2-7.98 10.65-31.09-4.77-31.09-184.09 0-333.33 149.23-333.33 333.33 0 184.09 149.24 333.33 333.33 333.33z"/>
		<rect width="800" height="800" id="Color Fill 1" style="fill: #9bc8db"/>
	</g>
</svg>